<?xml version="1.0" encoding="UTF-8" standalone="no"?><!DOCTYPE svg PUBLIC "-//W3C//DTD SVG 1.1//EN" "http://www.w3.org/Graphics/SVG/1.1/DTD/svg11.dtd"><svg width="100%" height="100%" viewBox="0 0 100 100" version="1.1" xmlns="http://www.w3.org/2000/svg" xmlns:xlink="http://www.w3.org/1999/xlink" xml:space="preserve" xmlns:serif="http://www.serif.com/" style="fill-rule:evenodd;clip-rule:evenodd;stroke-linejoin:round;stroke-miterlimit:2;"><path d="M83.333,77.5l-18.333,-18.333c3.265,-4.587 5.021,-10.079 5.021,-15.708c-0,-14.858 -12.226,-27.084 -27.084,-27.084c-14.857,0 -27.083,12.226 -27.083,27.084c-0,8.69 4.183,16.87 11.229,21.958c4.765,3.315 10.446,5.063 16.25,5c5.717,-0.089 11.261,-1.986 15.834,-5.417l17.5,17.5c0.786,1.048 2.023,1.667 3.333,1.667c2.286,-0 4.167,-1.881 4.167,-4.167c-0,-0.901 -0.293,-1.779 -0.834,-2.5Zm-58.75,-34.167c0,-10.286 8.464,-18.75 18.75,-18.75c10.286,0 18.75,8.464 18.75,18.75c-0.219,10.202 -8.548,18.531 -18.75,18.75c-10.286,0 -18.75,-8.464 -18.75,-18.75Z" style="fill:#141251;fill-rule:nonzero;"/></svg>