<?xml version="1.0" encoding="UTF-8" standalone="no"?><!DOCTYPE svg PUBLIC "-//W3C//DTD SVG 1.1//EN" "http://www.w3.org/Graphics/SVG/1.1/DTD/svg11.dtd"><svg width="100%" height="100%" viewBox="0 0 1080 1080" version="1.1" xmlns="http://www.w3.org/2000/svg" xmlns:xlink="http://www.w3.org/1999/xlink" xml:space="preserve" xmlns:serif="http://www.serif.com/" style="fill-rule:evenodd;clip-rule:evenodd;stroke-linejoin:round;stroke-miterlimit:2;"><g><circle cx="776.25" cy="202.5" r="89.996" style="fill:#1b60db;"/><path d="M776.25,607.5l-184.496,-0l132.742,-189c19.343,-28.825 13.446,-68.116 -13.5,-89.996c-11.804,-6.826 -24.775,-11.405 -38.242,-13.5l-256.5,-0c-13.544,-0.033 -26.234,6.739 -33.75,17.992l-45.004,112.504c-10.735,19.31 -4.828,43.924 13.5,56.246l20.25,4.504c13.543,0.022 26.222,-6.739 33.75,-18.004l33.75,-94.5l103.496,0c6.178,0 11.254,5.087 11.254,11.254c0.205,2.462 -0.605,4.903 -2.246,6.75l-128.25,182.25c-19.343,28.825 -13.446,68.116 13.5,89.996c11.804,6.826 24.775,11.405 38.242,13.5l247.504,0l-35.996,218.258c-0.389,2.365 -0.584,4.773 -0.584,7.171c0,22.367 16.676,41.504 38.826,44.571l6.75,0c22.346,0.26 41.656,-16.156 45.004,-38.242l45.004,-270c2.397,-13.112 -1.815,-26.601 -11.254,-36.008c-8.618,-9.644 -20.822,-15.336 -33.75,-15.746Z" style="fill:#1b60db;fill-rule:nonzero;"/><path d="M573.75,742.5l-0,11.254c-0,80.222 -66.02,146.242 -146.254,146.242c-80.222,0 -146.242,-66.02 -146.242,-146.242c-0.389,-53.59 29.16,-103.14 76.496,-128.25l29.246,-81c-92.61,25.347 -157.312,110.138 -157.312,206.161c-0,117.266 96.487,213.753 213.742,213.753c8.219,0 16.416,-0.475 24.57,-1.414c100.786,-19.451 174.032,-108.864 173.254,-211.508l-0,-8.996l-67.5,-0Z" style="fill:#1b60db;fill-rule:nonzero;"/></g></svg>